<svg xmlns="http://www.w3.org/2000/svg" xmlns:xlink="http://www.w3.org/1999/xlink" width="2014.035" height="1011.213" viewBox="0 0 2014.035 1011.213">
  <defs>
    <linearGradient id="linear-gradient" x1="0.059" y1="0.3" x2="0.523" y2="0.401" gradientUnits="objectBoundingBox">
      <stop offset="0" stop-color="#6e48aa"/>
      <stop offset="1" stop-color="#7e349d"/>
    </linearGradient>
    <filter id="Union_2" x="0" y="0" width="2014.035" height="1011.213" filterUnits="userSpaceOnUse">
      <feOffset dx="-35" dy="-29" input="SourceAlpha"/>
      <feGaussianBlur stdDeviation="15.5" result="blur"/>
      <feFlood flood-opacity="0.161"/>
      <feComposite operator="in" in2="blur"/>
      <feComposite in="SourceGraphic"/>
    </filter>
  </defs>
  <g transform="matrix(1, 0, 0, 1, 0, 0)" filter="url(#Union_2)">
    <path id="Union_2-2" data-name="Union 2" d="M-4080.649,907.457q-56.024-6.288-104.847-12.871c0-176.98,0-255.971,0-297.56l-.34-.031c-1.448-355.155.336-72.822.336-539.555,17.709-3.685,34.93-7.25,53.144-10.823,332.367-65.19,602.839-4.9,818.524,55.393,152,42.489,276.789,84.979,376.857,83.55,316.53-4.517,413.9-212.345,671.488-182.66.218,54.065.074,50.095.074,490.26l-.089.038c0,41.913.008,130.006.008,316.608-165.725-33.99-296.082-144.441-550.917-130.039-230.253,13.013-568.832,238.447-1073.107,238.445A1711.58,1711.58,0,0,1-4080.649,907.457Z" transform="translate(4267.9 75.5)" fill="url(#linear-gradient)"/>
  </g>
</svg>
