<svg id="gazette_1_" data-name="gazette (1)" xmlns="http://www.w3.org/2000/svg" width="57.667" height="57.667" viewBox="0 0 57.667 57.667">
  <path id="Path_127" data-name="Path 127" d="M52.893,27.4,58.705,2,30.833,6.806,2,2,8.728,27.95,2,53.9l28.833,5.767L59.667,53.9Z" transform="translate(-2 -2)" fill="#dfdeed"/>
  <path id="Path_128" data-name="Path 128" d="M30.833,6.806,2,2,8.728,27.95,2,53.9l28.833,5.767Z" transform="translate(-2 -2)" fill="#babac6"/>
  <path id="Path_129" data-name="Path 129" d="M10,9l16.339,2.883v4.806L10,13.806Z" transform="translate(-2.311 -2.272)" fill="#f73445"/>
  <path id="Path_130" data-name="Path 130" d="M50.417,30,36,32.883v4.806l14.417-2.883Z" transform="translate(-3.322 -3.089)" fill="#fed966"/>
  <path id="Path_131" data-name="Path 131" d="M21,31.765v4.806l6.728,1.187V32.952Z" transform="translate(-2.739 -3.158)" fill="#92b1f9"/>
  <path id="Path_132" data-name="Path 132" d="M52.728,9.765v4.806L46,15.758V10.952Z" transform="translate(-3.711 -2.302)" fill="#f59536"/>
  <g id="Group_96" data-name="Group 96" transform="translate(8.483 15.393)">
    <path id="Path_133" data-name="Path 133" d="M0,0H1.921V16.591H0Z" transform="translate(0 1.892) rotate(-79.992)" fill="#393939"/>
    <path id="Path_134" data-name="Path 134" d="M0,0H1.921V7.808H0Z" transform="translate(9.611 9.185) rotate(-79.989)" fill="#393939"/>
    <path id="Path_135" data-name="Path 135" d="M0,0H1.921V5.531H0Z" transform="translate(1.922 7.659) rotate(-79.992)" fill="#393939"/>
    <path id="Path_136" data-name="Path 136" d="M0,0H1.921V7.808H0Z" transform="translate(8.65 35.135) rotate(-79.989)" fill="#393939"/>
    <path id="Path_137" data-name="Path 137" d="M0,0H1.921V5.531H0Z" transform="translate(0.961 33.609) rotate(-79.992)" fill="#393939"/>
    <path id="Path_138" data-name="Path 138" d="M0,0H1.921V16.591H0Z" transform="translate(0 27.842) rotate(-79.992)" fill="#393939"/>
    <path id="Path_139" data-name="Path 139" d="M0,0H1.922V4.9H0Z" transform="translate(1.901 15.344) rotate(-78.69)" fill="#393939"/>
    <path id="Path_140" data-name="Path 140" d="M0,0H1.921V15.646H0Z" transform="translate(0.951 22.074) rotate(-79.38)" fill="#393939"/>
  </g>
  <path id="Path_141" data-name="Path 141" d="M0,0H16.591V1.921H0Z" transform="translate(32.511 18.277) rotate(-10.015)" fill="#646464"/>
  <path id="Path_142" data-name="Path 142" d="M0,0H7.808V1.921H0Z" transform="translate(31.55 24.043) rotate(-10.015)" fill="#646464"/>
  <path id="Path_143" data-name="Path 143" d="M0,0H5.531V1.921H0Z" transform="translate(41.481 22.121) rotate(-10.015)" fill="#646464"/>
  <path id="Path_144" data-name="Path 144" d="M0,0H7.808V1.921H0Z" transform="translate(32.511 49.993) rotate(-10.015)" fill="#646464"/>
  <path id="Path_145" data-name="Path 145" d="M0,0H5.531V1.921H0Z" transform="translate(42.442 48.07) rotate(-10.015)" fill="#646464"/>
  <path id="Path_146" data-name="Path 146" d="M0,0H16.591V1.921H0Z" transform="translate(32.511 44.227) rotate(-10.015)" fill="#646464"/>
  <path id="Path_147" data-name="Path 147" d="M0,0H4.9V1.922H0Z" transform="translate(34.411 11.553) rotate(-11.321)" fill="#646464"/>
  <path id="Path_148" data-name="Path 148" d="M0,0H15.646V1.921H0Z" transform="matrix(0.983, -0.185, 0.185, 0.983, 32.501, 38.464)" fill="#646464"/>
</svg>
