<svg xmlns="http://www.w3.org/2000/svg" width="35.499" height="36.676" viewBox="0 0 35.499 36.676">
  <g id="double-angle-pointing-to-right" transform="translate(35.499 36.676) rotate(180)">
    <g id="Group_40" data-name="Group 40" transform="translate(0 0)">
      <path id="Path_114" data-name="Path 114" d="M21.02,17.493,3.894.368a1.154,1.154,0,0,0-1.69,0L.367,2.205a1.156,1.156,0,0,0,0,1.691L14.81,18.338.367,32.781a1.156,1.156,0,0,0,0,1.691l1.838,1.837a1.155,1.155,0,0,0,1.689,0L21.02,19.184a1.158,1.158,0,0,0,0-1.691Z" transform="translate(14.112)" fill="#7567bb"/>
      <path id="Path_115" data-name="Path 115" d="M21.388,18.339a1.161,1.161,0,0,0-.368-.846L3.9.368a1.155,1.155,0,0,0-1.69,0L.368,2.205a1.156,1.156,0,0,0,0,1.691L14.81,18.339.368,32.781a1.156,1.156,0,0,0,0,1.691L2.2,36.309a1.156,1.156,0,0,0,1.691,0L21.02,19.184A1.159,1.159,0,0,0,21.388,18.339Z" fill="#7567bb"/>
    </g>
  </g>
</svg>
