<svg id="gmail" xmlns="http://www.w3.org/2000/svg" width="139.725" height="139.725" viewBox="0 0 139.725 139.725">
  <g id="Group_32" data-name="Group 32" transform="translate(0 0)">
    <path id="Path_102" data-name="Path 102" d="M119.262,20.462a69.862,69.862,0,1,0-98.8,98.8,69.862,69.862,0,1,0,98.8-98.8Zm-49.4-16.05a65.1,65.1,0,0,1,38.78,12.761L69.862,46.505,31.082,17.173A65.1,65.1,0,0,1,69.862,4.412ZM17.65,109.281A65.314,65.314,0,0,1,15.72,33.128l1.929,1.514v74.639ZM95.535,49.857a2.206,2.206,0,0,0,2.724,3.471l19.4-15.224v76.415a65.34,65.34,0,0,1-95.6,0V38.1L68.5,74.539a2.206,2.206,0,0,0,2.724,0L89.743,60.01a2.206,2.206,0,1,0-2.724-3.471L69.862,70,18.325,29.563A66.035,66.035,0,0,1,27.512,20l41.02,31.026a2.206,2.206,0,0,0,2.662,0L112.213,20a66.049,66.049,0,0,1,9.187,9.559Zm26.54-15.215L124,33.128a65.315,65.315,0,0,1-1.929,76.152Z" transform="translate(0 0)" fill="#7567bb"/>
  </g>
</svg>
