<svg id="instagram" xmlns="http://www.w3.org/2000/svg" width="140.147" height="140.147" viewBox="0 0 140.147 140.147">
  <g id="Group_25" data-name="Group 25" transform="translate(0 0)">
    <g id="Group_24" data-name="Group 24">
      <path id="Path_99" data-name="Path 99" d="M119.623,20.524a70.073,70.073,0,1,0-99.1,99.1,70.073,70.073,0,1,0,99.1-99.1Zm-49.549,115.2a65.648,65.648,0,1,1,65.648-65.648A65.722,65.722,0,0,1,70.074,135.722Z" transform="translate(0 0)" fill="#7567bb"/>
    </g>
  </g>
  <g id="Group_27" data-name="Group 27" transform="translate(26.554 26.554)">
    <g id="Group_26" data-name="Group 26">
      <path id="Path_100" data-name="Path 100" d="M165.671,97.011H115.39A18.4,18.4,0,0,0,97.011,115.39v50.281A18.4,18.4,0,0,0,115.39,184.05h50.281a18.4,18.4,0,0,0,18.379-18.379V115.39A18.4,18.4,0,0,0,165.671,97.011Zm13.953,68.66a13.969,13.969,0,0,1-13.953,13.953H115.39a13.969,13.969,0,0,1-13.953-13.953V115.39a13.969,13.969,0,0,1,13.953-13.953h50.281a13.969,13.969,0,0,1,13.953,13.953v50.281Z" transform="translate(-97.011 -97.011)" fill="#7567bb"/>
    </g>
  </g>
  <g id="Group_29" data-name="Group 29" transform="translate(47.207 47.208)">
    <g id="Group_28" data-name="Group 28">
      <path id="Path_101" data-name="Path 101" d="M218.158,194.022A22.892,22.892,0,1,0,207.4,214.741a2.192,2.192,0,0,0,.394-3.41l-.031-.031a2.2,2.2,0,0,0-2.729-.294,18.325,18.325,0,0,1-9.9,2.765,18.46,18.46,0,1,1,16.491-9.819,2.2,2.2,0,0,0,.372,2.6l.034.034a2.186,2.186,0,0,0,3.469-.5A22.728,22.728,0,0,0,218.158,194.022Z" transform="translate(-172.463 -172.464)" fill="#7567bb"/>
    </g>
  </g>
  <g id="Group_31" data-name="Group 31" transform="translate(87.777 37.618)">
    <g id="Group_30" data-name="Group 30">
      <circle id="Ellipse_55" data-name="Ellipse 55" cx="5.901" cy="5.901" r="5.901" fill="#7567bb"/>
    </g>
  </g>
</svg>
