<svg id="news" xmlns="http://www.w3.org/2000/svg" width="60.973" height="46.444" viewBox="0 0 60.973 46.444">
  <path id="Path_151" data-name="Path 151" d="M53.827,46.444H8.931A8.941,8.941,0,0,1,0,37.512V5.359A5.366,5.366,0,0,1,5.359,0H50.244c.532,0,.431.234.262.608a2.98,2.98,0,0,0-3.228,2.965V39.3a6.555,6.555,0,0,0,6.592,6.55c0,.387-.007.6-.042.6Zm0,0" transform="translate(0 0)" fill="#e8efff"/>
  <path id="Path_152" data-name="Path 152" d="M253.072,46.444H226.18V0h23.309c.532,0,.431.234.262.608a2.981,2.981,0,0,0-3.228,2.965V39.3a6.555,6.555,0,0,0,6.592,6.55c0,.387-.007.6-.042.6Zm0,0" transform="translate(-199.245 0)" fill="#ccdfff"/>
  <path id="Path_153" data-name="Path 153" d="M77.2,180H62.786A1.786,1.786,0,0,0,61,181.786v14.29a1.786,1.786,0,0,0,1.786,1.786H77.2a1.786,1.786,0,0,0,1.786-1.786v-14.29A1.786,1.786,0,0,0,77.2,180Zm0,0" transform="translate(-53.736 -158.564)" fill="#ffc543"/>
  <path id="Path_154" data-name="Path 154" d="M61.786,63.573H90.605a1.786,1.786,0,1,0,0-3.573H61.786a1.786,1.786,0,0,0,0,3.573Zm0,0" transform="translate(-52.855 -52.855)" fill="#40b4f9"/>
  <path id="Path_155" data-name="Path 155" d="M90.605,120H61.786a1.786,1.786,0,1,0,0,3.573H90.605a1.786,1.786,0,1,0,0-3.573Zm0,0" transform="translate(-52.855 -105.71)" fill="#40b4f9"/>
  <g id="Group_102" data-name="Group 102" transform="translate(26.935 7.145)">
    <path id="Path_156" data-name="Path 156" d="M250.051,180h-7.264a1.786,1.786,0,0,0,0,3.573h7.264a1.786,1.786,0,0,0,0-3.573Zm0,0" transform="translate(-239.235 -165.71)" fill="#0097f1"/>
    <path id="Path_157" data-name="Path 157" d="M250.051,240h-7.264a1.786,1.786,0,1,0,0,3.573h7.264a1.786,1.786,0,1,0,0-3.573Zm0,0" transform="translate(-239.235 -218.564)" fill="#0097f1"/>
    <path id="Path_158" data-name="Path 158" d="M250.051,300h-7.264a1.786,1.786,0,1,0,0,3.573h7.264a1.786,1.786,0,1,0,0-3.573Zm0,0" transform="translate(-239.235 -271.419)" fill="#0097f1"/>
    <path id="Path_159" data-name="Path 159" d="M238.781,61.786A1.787,1.787,0,0,1,237,63.573H226.18V60H237A1.787,1.787,0,0,1,238.781,61.786Zm0,0" transform="translate(-226.18 -60)" fill="#0097f1"/>
    <path id="Path_160" data-name="Path 160" d="M238.781,121.786A1.787,1.787,0,0,1,237,123.573H226.18V120H237A1.787,1.787,0,0,1,238.781,121.786Zm0,0" transform="translate(-226.18 -112.855)" fill="#0097f1"/>
    <path id="Path_161" data-name="Path 161" d="M404.5,90H398.55v23.222a1.192,1.192,0,0,1-1.191,1.191H392.6l-.6.6v3.573a7.145,7.145,0,1,0,14.29,0V91.786A1.786,1.786,0,0,0,404.5,90Zm0,0" transform="translate(-372.253 -86.427)" fill="#0097f1"/>
  </g>
  <path id="Path_162" data-name="Path 162" d="M392,3.572V35.726h5.359a1.786,1.786,0,0,0,1.786-1.786V3.572a3.573,3.573,0,1,0-7.145,0Zm0,0" transform="translate(-345.318 0)" fill="#96beed"/>
</svg>
