<svg xmlns="http://www.w3.org/2000/svg" xmlns:xlink="http://www.w3.org/1999/xlink" width="53.74" height="53.74" viewBox="0 0 53.74 53.74">
  <defs>
    <linearGradient id="linear-gradient" x1="-9.106" y1="-8.317" x2="19.919" y2="-6.851" gradientUnits="objectBoundingBox">
      <stop offset="0" stop-color="#b3abd6"/>
      <stop offset="1" stop-color="#b0abc3"/>
    </linearGradient>
  </defs>
  <path id="Path_65" data-name="Path 65" d="M53.278,9.368,44.372.462a1.574,1.574,0,0,0-2.227,0L7.163,35.444l0,0a1.636,1.636,0,0,0-.353.512l-.01.024,0,.005L.127,51.546a1.574,1.574,0,0,0,2.067,2.067l15.586-6.68h0a1.566,1.566,0,0,0,.493-.333L53.278,11.594a1.574,1.574,0,0,0,0-2.227ZM4.572,49.168l1.455-3.395a4.715,4.715,0,0,1,1.94,1.94Zm10.962-4.7-4.666,2a7.881,7.881,0,0,0-3.6-3.6l2-4.666h1.856V41.04A1.574,1.574,0,0,0,12.7,42.614h2.834Zm3.149-2.733v-.7a1.574,1.574,0,0,0-1.574-1.574H14.274V36.632A1.574,1.574,0,0,0,12.7,35.057H12l22.35-22.35,6.68,6.68ZM43.259,17.161l-6.68-6.68,2.227-2.227,6.68,6.68Zm4.453-4.453-6.68-6.68L43.259,3.8l6.68,6.68Z" transform="translate(0 0)" fill="url(#linear-gradient)"/>
</svg>
