<svg xmlns="http://www.w3.org/2000/svg" width="29.967" height="31.115" viewBox="0 0 29.967 31.115">
  <g id="double-angle-pointing-to-right" transform="translate(29.967 31.115) rotate(180)">
    <g id="Group_40" data-name="Group 40">
      <path id="Path_114" data-name="Path 114" d="M17.744,14.84,3.288.312a.971.971,0,0,0-1.426,0L.31,1.871a.984.984,0,0,0,0,1.434L12.5,15.558.31,27.811a.984.984,0,0,0,0,1.434L1.861,30.8a.972.972,0,0,0,1.426,0L17.744,16.275a.985.985,0,0,0,0-1.435Z" transform="translate(11.912)" fill="#b59c30"/>
      <path id="Path_115" data-name="Path 115" d="M18.055,15.558a.987.987,0,0,0-.31-.718L3.288.312a.972.972,0,0,0-1.427,0L.31,1.871a.984.984,0,0,0,0,1.434L12.5,15.558.31,27.811a.984.984,0,0,0,0,1.434L1.861,30.8a.973.973,0,0,0,1.427,0L17.744,16.275A.985.985,0,0,0,18.055,15.558Z" fill="#b59c30"/>
    </g>
  </g>
</svg>
