<svg id="telegram" xmlns="http://www.w3.org/2000/svg" width="145.868" height="145.868" viewBox="0 0 145.868 145.868">
  <g id="Group_34" data-name="Group 34" transform="translate(0 0)">
    <g id="Group_33" data-name="Group 33">
      <path id="Path_103" data-name="Path 103" d="M124.506,21.362A72.934,72.934,0,1,0,21.362,124.506,72.934,72.934,0,1,0,124.506,21.362Zm-51.572,119.9a68.328,68.328,0,1,1,68.328-68.328A68.405,68.405,0,0,1,72.934,141.262Z" transform="translate(0 0)" fill="#7567bb"/>
    </g>
  </g>
  <g id="Group_36" data-name="Group 36" transform="translate(21.496 27.638)">
    <g id="Group_35" data-name="Group 35">
      <path id="Path_104" data-name="Path 104" d="M168.2,97.474a2.3,2.3,0,0,0-2.444-.206L76.7,143.332a2.3,2.3,0,0,0,.028,4.106l23.295,11.647v23.079a2.376,2.376,0,0,0,.621,1.64,2.305,2.305,0,0,0,2.8.438l26.651-14.806,20.4,8.742a2.4,2.4,0,0,0,1.379.176,2.307,2.307,0,0,0,1.848-1.815l5.161-25.805a2.3,2.3,0,0,0-4.517-.9l-4.6,23.022-18.887-8.095a2.305,2.305,0,0,0-2.026.1l-24.216,13.454V157.661a2.3,2.3,0,0,0-1.273-2.06L82.835,145.343l80.777-41.782L156.6,138.61a2.3,2.3,0,0,0,4.517.9l7.95-39.748A2.3,2.3,0,0,0,168.2,97.474Z" transform="translate(-75.451 -97.011)" fill="#7567bb"/>
    </g>
  </g>
  <g id="Group_38" data-name="Group 38" transform="translate(55.277 46.063)">
    <g id="Group_37" data-name="Group 37">
      <path id="Path_105" data-name="Path 105" d="M238.054,162.559a2.3,2.3,0,0,0-3.015-.534l-39.922,24.567a2.3,2.3,0,0,0-1.1,1.962v24.567a2.3,2.3,0,0,0,4.363,1.03l9.046-18.091,30.445-30.445A2.3,2.3,0,0,0,238.054,162.559Zm-34.145,30.508a2.306,2.306,0,0,0-.431.6l-4.85,9.7V189.841l22.118-13.612Z" transform="translate(-194.022 -161.683)" fill="#7567bb"/>
    </g>
  </g>
</svg>
