<svg xmlns="http://www.w3.org/2000/svg" xmlns:xlink="http://www.w3.org/1999/xlink" width="2798.001" height="1678" viewBox="0 0 2798.001 1678">
  <defs>
    <linearGradient id="linear-gradient" x1="0.04" y1="0.486" x2="0.98" y2="0.5" gradientUnits="objectBoundingBox">
      <stop offset="0" stop-color="#26166d"/>
      <stop offset="1" stop-color="#6759b1"/>
    </linearGradient>
    <filter id="Subtraction_1" x="0" y="0" width="2798.001" height="1065.91" filterUnits="userSpaceOnUse">
      <feOffset dy="89" input="SourceAlpha"/>
      <feGaussianBlur stdDeviation="38" result="blur"/>
      <feFlood flood-color="#353535" flood-opacity="0.431"/>
      <feComposite operator="in" in2="blur"/>
      <feComposite in="SourceGraphic"/>
    </filter>
  </defs>
  <g id="Group_136" data-name="Group 136" transform="translate(489 -4376)">
    <g id="Ellipse_58" data-name="Ellipse 58" transform="translate(-351 4671)" stroke="#707070" stroke-width="1" fill="url(#linear-gradient)">
      <ellipse cx="1285" cy="691.5" rx="1285" ry="691.5" stroke="none"/>
      <ellipse cx="1285" cy="691.5" rx="1284.5" ry="691" fill="none"/>
    </g>
    <g transform="matrix(1, 0, 0, 1, -489, 4376)" filter="url(#Subtraction_1)">
      <path id="Subtraction_1-2" data-name="Subtraction 1" d="M-1994.141,837.911v0c-4.72-11.782-8.919-23.8-12.483-35.718-3.589-12-6.628-24.232-9.034-36.343-2.425-12.206-4.271-24.626-5.49-36.914-1.228-12.389-1.851-24.983-1.851-37.432,0-11.835.563-23.807,1.672-35.584,1.1-11.687,2.77-23.5,4.962-35.117,2.176-11.53,4.925-23.173,8.172-34.607,3.223-11.352,7.025-22.81,11.3-34.053,4.247-11.169,9.075-22.425,14.349-33.455,5.244-10.967,11.069-22.007,17.316-32.815,6.214-10.75,13.011-21.56,20.2-32.13,7.157-10.519,14.9-21.084,23.008-31.4,8.076-10.275,16.734-20.58,25.734-30.631,8.966-10.013,18.513-20.044,28.378-29.816a799.951,799.951,0,0,1,64.365-57.014c22.955-18.285,47.843-36.2,73.974-53.234,26.067-17,53.971-33.519,82.936-49.106s59.67-30.6,91.253-44.631c31.659-14.06,64.942-27.453,98.923-39.807,34.143-12.413,69.79-24.067,105.948-34.637,36.416-10.646,74.208-20.442,112.327-29.119,38.474-8.757,78.2-16.581,118.06-23.253,40.319-6.748,81.752-12.481,123.148-17.04,41.938-4.618,84.865-8.144,127.588-10.478C-826.036,1.2-781.832,0-738,0s88.036,1.2,131.384,3.57c42.723,2.335,85.65,5.86,127.588,10.478,41.4,4.558,82.829,10.291,123.148,17.04,39.865,6.673,79.586,14.5,118.06,23.253,38.119,8.676,75.911,18.473,112.328,29.119,36.159,10.57,71.805,22.224,105.948,34.637,33.981,12.354,67.264,25.747,98.923,39.807,31.583,14.027,62.285,29.042,91.253,44.631s56.869,32.109,82.936,49.106c26.13,17.039,51.018,34.949,73.974,53.234a799.951,799.951,0,0,1,64.365,57.014c9.864,9.772,19.412,19.8,28.378,29.816,9,10.05,17.658,20.356,25.733,30.631,8.11,10.318,15.851,20.883,23.008,31.4,7.192,10.569,13.988,21.379,20.2,32.13,6.247,10.807,12.072,21.848,17.316,32.815,5.274,11.03,10.1,22.286,14.349,33.455,4.275,11.243,8.077,22.7,11.3,34.053,3.247,11.433,6,23.077,8.172,34.607,2.192,11.615,3.862,23.43,4.962,35.117,1.11,11.777,1.672,23.75,1.672,35.584,0,12.19-.6,24.522-1.775,36.655-1.168,12.036-2.939,24.2-5.264,36.158-2.308,11.868-5.224,23.85-8.666,35.613-3.417,11.679-7.448,23.461-11.979,35.021C474.685,715.425,379.364,603.4,250.912,519.512c-14.578-9.521-29.872-18.9-45.458-27.879-15.485-8.921-31.683-17.69-48.143-26.064-16.359-8.322-33.423-16.481-50.72-24.251C89.4,433.6,71.5,426.047,53.4,418.879c-18-7.128-36.691-14.069-55.549-20.631-18.765-6.53-38.212-12.863-57.8-18.825-38.925-11.847-79.946-22.694-121.925-32.242-41.648-9.472-85.263-17.9-129.633-25.044-44.091-7.1-90.008-13.112-136.476-17.866-46.258-4.732-94.186-8.334-142.453-10.706C-638.576,291.2-688.224,290-738,290c-45.48,0-91.487,1.459-136.743,4.337-44.209,2.811-88.776,7.044-132.464,12.581-42.716,5.414-85.614,12.2-127.5,20.182-41.007,7.81-82.006,16.942-121.858,27.14-39.073,10-77.943,21.255-115.531,33.454-36.928,11.986-73.44,25.15-108.522,39.126-34.552,13.765-68.477,28.621-100.83,44.154-31.951,15.34-63.057,31.671-92.456,48.539-19.567,11.227-38.616,22.82-56.619,34.457-18.184,11.754-35.8,23.875-52.353,36.026-16.724,12.275-32.823,24.917-47.85,37.573-15.19,12.795-29.694,25.95-43.11,39.1-13.565,13.3-26.395,26.958-38.133,40.606-11.869,13.8-22.944,27.961-32.919,42.089a485.829,485.829,0,0,0-27.469,43.552,429.618,429.618,0,0,0-21.781,44.991Z" transform="translate(2137 25)" fill="#fff"/>
    </g>
  </g>
</svg>
