<svg xmlns="http://www.w3.org/2000/svg" xmlns:xlink="http://www.w3.org/1999/xlink" width="2148.021" height="1274" viewBox="0 0 2148.021 1274">
  <defs>
    <linearGradient id="linear-gradient" x1="0.04" y1="0.486" x2="0.98" y2="0.5" gradientUnits="objectBoundingBox">
      <stop offset="0" stop-color="#26166d"/>
      <stop offset="1" stop-color="#6759b1"/>
    </linearGradient>
    <filter id="Subtraction_1" x="0" y="0" width="2148.021" height="688.487" filterUnits="userSpaceOnUse">
      <feOffset dy="89" input="SourceAlpha"/>
      <feGaussianBlur stdDeviation="38" result="blur"/>
      <feFlood flood-color="#353535" flood-opacity="0.431"/>
      <feComposite operator="in" in2="blur"/>
      <feComposite in="SourceGraphic"/>
    </filter>
  </defs>
  <g id="Group_135" data-name="Group 135" transform="translate(114.019 -4372)">
    <path id="Path_173" data-name="Path 173" d="M1285,0c401.68,0,755,102.115,986.013,235.491,0,294.616.013,135.243.013,604.837C2035.545,952.44,1681.006,1024,1285,1024c-368.325,0-700.455-61.745-934.468-160.555,0-538.645.471-322.639.471-652.739C665.99,28.848,915.252,0,1285,0Z" transform="translate(-351 4622)" fill="url(#linear-gradient)"/>
    <g transform="matrix(1, 0, 0, 1, -114.02, 4372)" filter="url(#Subtraction_1)">
      <path id="Subtraction_1-2" data-name="Subtraction 1" d="M271.984,460.487h0c-6.895-4.147-13.984-8.275-21.071-12.268C135.706,383.3-9.9,333.281-181.872,299.536c-41.646-8.172-85.261-15.442-129.633-21.607-44.094-6.127-90.011-11.313-136.476-15.414-46.253-4.083-94.181-7.19-142.454-9.237-48.14-2.04-97.788-3.075-147.565-3.075-43.853,0-88.218,1.17-131.864,3.478-42.674,2.257-85.709,5.656-127.91,10.1-41.295,4.352-82.794,9.813-123.346,16.232-39.723,6.288-79.481,13.644-118.171,21.865-37.957,8.065-75.769,17.149-112.387,27-35.987,9.682-71.647,20.326-105.99,31.639-67.415,22.207-131.458,47.51-190.35,75.207,0-153.214.01-199.982.016-227.924V206c0-11.64,0-19.517,0-30.728,28.955-13.443,59.664-26.4,91.276-38.512,31.692-12.143,65.021-23.715,99.061-34.4,34.21-10.735,69.929-20.818,106.164-29.968,36.5-9.218,74.382-17.7,112.586-25.224,38.572-7.592,78.383-14.377,118.325-20.166,40.411-5.857,81.923-10.834,123.381-14.793C-955.181,8.2-912.2,5.135-869.448,3.105-826.047,1.045-781.821,0-738,0c50.534,0,101.44,1.377,151.3,4.093,49.05,2.672,98.217,6.7,146.136,11.973,47.238,5.2,94.332,11.722,139.973,19.392,45.1,7.58,89.788,16.446,132.814,26.352,42.637,9.817,84.579,20.87,124.661,32.852,39.84,11.91,78.7,25,115.513,38.893,36.7,13.857,72.153,28.82,105.37,44.473S242.7,210.371,272,227.622c0,7.931,0,18.047,0,30.644v24.456c0,40.03,0,97.592,0,177.726l-.008.02-.008.019Z" transform="translate(1762.02 25)" fill="#f2f2f2"/>
    </g>
  </g>
</svg>
